<svg width="512" height="512" viewBox="0 0 512 512" xmlns="http://www.w3.org/2000/svg">
    <defs>
        <radialGradient id="ocean" cx="50%" cy="50%" r="50%">
            <stop offset="0%" stop-color="#5EC8FF"/>
            <stop offset="100%" stop-color="#006BB3"/>
        </radialGradient>
        <linearGradient id="land" x1="0" y1="0" x2="1" y2="1">
            <stop offset="0%" stop-color="#8FDC6B"/>
            <stop offset="100%" stop-color="#4FAF3E"/>
        </linearGradient>
        <radialGradient id="light" cx="35%" cy="35%" r="60%">
            <stop offset="0%" stop-color="rgba(255,255,255,0.7)"/>
            <stop offset="100%" stop-color="rgba(255,255,255,0)" />
        </radialGradient>
    </defs>

    <!-- Sphere -->
    <circle cx="256" cy="256" r="240" fill="url(#ocean)"/>

    <!-- Continents (Europe / Africa / Middle-East approximation) -->
    <path
            d="M245 120c20 5 25 25 45 30 10 2 20-2 30 5 10 8 5 20-5 25-15 8-25 0-35 5-10 6-10 20-20 25-20 10-40-10-55 0-5 5-5 15-15 20-15 5-35-5-40-20-8-25 15-45 30-60 15-15 35-35 65-30z
       M310 265c10-5 25 0 35 5 10 10 20 20 25 35 5 15 0 35-10 45-15 15-40 20-65 15-20-5-45-20-50-40-5-20 10-35 25-45 15-5 35-15 40-15z"
            fill="url(#land)"
    />

    <!-- Light reflection (premium glossy effect) -->
    <circle cx="200" cy="180" r="140" fill="url(#light)" />

</svg>
